<?xml version="1.0" standalone="no"?>
<!DOCTYPE svg PUBLIC "-//W3C//DTD SVG 20010904//EN"
 "http://www.w3.org/TR/2001/REC-SVG-20010904/DTD/svg10.dtd">
<svg version="1.0" xmlns="http://www.w3.org/2000/svg"
 width="128.000000pt" height="128.000000pt" viewBox="0 0 128.000000 128.000000"
 preserveAspectRatio="xMidYMid meet">

<g transform="translate(0.000000,128.000000) scale(0.100000,-0.100000)"
fill="#000000" stroke="none">
<path d="M857 1103 c-57 -98 -488 -895 -486 -897 2 -2 18 -10 35 -19 l30 -16
243 444 c133 244 243 447 243 451 0 11 -60 46 -65 37z"/>
<path d="M183 788 l-151 -153 157 -152 158 -152 22 22 c11 13 21 27 21 33 0 5
-55 64 -122 131 l-123 123 125 125 124 124 -24 26 c-13 14 -26 25 -29 25 -4 0
-74 -69 -158 -152z"/>
<path d="M910 915 l-24 -26 124 -124 125 -125 -123 -123 c-67 -67 -122 -127
-122 -133 0 -6 10 -20 23 -31 l22 -21 157 152 156 153 -151 151 c-84 84 -155
152 -158 152 -3 0 -16 -11 -29 -25z"/>
</g>
</svg>
